Coordinates
version=1
nRows=9
nColumns=63
inDegrees=yes

Units are S.I. units (second, meters, Newtons, ...)
If the header above contains a line with 'inDegrees', this indicates whether rotational values are in degrees (yes) or radians (no).

endheader
time	pelvis_tilt	pelvis_list	pelvis_rotation	pelvis_tx	pelvis_ty	pelvis_tz	hip_flexion_r	hip_adduction_r	hip_rotation_r	knee_angle_r	knee_angle_r_beta	ankle_angle_r	subtalar_angle_r	mtp_angle_r	hip_flexion_l	hip_adduction_l	hip_rotation_l	knee_angle_l	knee_angle_l_beta	ankle_angle_l	subtalar_angle_l	mtp_angle_l	L5_S1_Flex_Ext	L5_S1_Lat_Bending	L5_S1_axial_rotation	L4_L5_Flex_Ext	L4_L5_Lat_Bending	L4_L5_axial_rotation	L3_L4_Flex_Ext	L3_L4_Lat_Bending	L3_L4_axial_rotation	L2_L3_Flex_Ext	L2_L3_Lat_Bending	L2_L3_axial_rotation	L1_L2_Flex_Ext	L1_L2_Lat_Bending	L1_L2_axial_rotation	L1_T12_Flex_Ext	L1_T12_Lat_Bending	L1_T12_axial_rotation	Abs_r3	Abs_r2	Abs_r1	Abs_t1	Abs_t2	neck_flexion	neck_bending	neck_rotation	arm_flex_r	arm_add_r	arm_rot_r	elbow_flex_r	pro_sup_r	wrist_flex_r	wrist_dev_r	arm_flex_l	arm_add_l	arm_rot_l	elbow_flex_l	pro_sup_l	wrist_flex_l	wrist_dev_l
4.796610	-0.150497	-5.015955	88.372707	0.192200	0.895056	0.629130	1.616889	-1.536656	-1.590185	9.087223	0.158602	28.745490	10.515536	0.000000	4.053153	1.197387	10.777297	13.433285	0.234455	26.600031	-12.837094	0.000000	0.016025	0.227144	0.166592	0.029760	0.302102	0.177004	0.026327	0.552278	0.177004	0.018315	0.552278	0.145768	0.014881	0.463192	0.135356	0.009157	0.351846	0.124944	0.114464	2.569500	0.926533	0.000000	0.000000	27.215650	-2.739750	-2.875795	10.798389	-11.654272	139.806510	5.532057	3.797024	-2.776312	-9.698397	10.500986	-10.784530	115.741912	11.511691	6.062293	-6.598480	-13.888420
4.813559	-0.101856	-5.037407	88.374116	0.192150	0.895138	0.629097	1.654465	-1.491311	-1.581426	9.083511	0.158537	28.929529	10.650448	0.000000	4.081763	1.133247	10.671424	13.402534	0.233918	26.757756	-12.683223	0.000000	0.015650	0.235773	0.150544	0.029063	0.313578	0.159953	0.025711	0.573259	0.159953	0.017886	0.573259	0.131726	0.014532	0.480789	0.122317	0.008942	0.365213	0.112908	0.111784	2.667115	0.837281	0.000000	0.000000	27.184422	-2.628988	-2.662668	10.859241	-11.658250	140.154294	5.469727	3.839236	-2.910494	-9.821668	10.488342	-10.742359	115.626472	11.442951	5.979779	-6.715929	-14.072819
4.830508	-0.039188	-5.073813	88.378458	0.192060	0.895208	0.628964	1.696522	-1.428476	-1.527957	9.063805	0.158193	29.109352	10.739182	0.000000	4.112847	1.057362	10.617736	13.347697	0.232961	26.935010	-12.512282	0.000000	0.018765	0.247537	0.112083	0.034848	0.329224	0.119089	0.030829	0.601861	0.119089	0.021446	0.601861	0.098073	0.017425	0.504777	0.091068	0.010722	0.383434	0.084063	0.134036	2.800185	0.623375	0.000000	0.000000	27.171730	-2.487740	-2.288958	10.972025	-11.645688	140.826177	5.393588	3.935934	-3.117269	-9.925809	10.392881	-10.701360	115.274439	11.360836	5.950483	-6.853856	-14.281561
4.847458	0.036443	-5.125704	88.383763	0.191918	0.895260	0.628747	1.751021	-1.356368	-1.512316	9.043489	0.157839	29.294576	10.881083	0.000000	4.148705	0.973079	10.611203	13.276045	0.231711	27.115063	-12.334407	0.000000	0.025250	0.262128	0.052109	0.046891	0.348630	0.055365	0.041483	0.637338	0.055365	0.028858	0.637338	0.045595	0.023447	0.534531	0.042338	0.014428	0.406036	0.039081	0.180356	2.965245	0.289812	0.000000	0.000000	27.177921	-2.327286	-1.784743	11.134085	-11.618227	141.817887	5.298786	4.032409	-3.342688	-10.001408	10.222888	-10.654237	114.794373	11.257886	5.848943	-6.997967	-14.547507
4.864407	0.125146	-5.188251	88.385626	0.191739	0.895297	0.628478	1.811542	-1.268629	-1.462256	9.015600	0.157352	29.447925	10.963175	0.000000	4.186006	0.880940	10.646318	13.193002	0.230261	27.280641	-12.170036	0.000000	0.033924	0.278966	-0.023010	0.063000	0.371025	-0.024448	0.055734	0.678278	-0.024448	0.038772	0.678278	-0.020134	0.031502	0.568868	-0.018696	0.019384	0.432119	-0.017258	0.242316	3.155721	-0.127976	0.000000	0.000000	27.201367	-2.154597	-1.202947	11.337269	-11.586332	142.937177	5.213684	4.121207	-3.563924	-10.054433	9.997081	-10.608628	114.124918	11.154124	5.752217	-7.155030	-14.858341
4.881356	0.220034	-5.258090	88.379658	0.191547	0.895324	0.628178	1.879956	-1.176587	-1.440094	8.990929	0.156921	29.570283	11.059973	0.000000	4.225024	0.779947	10.641326	13.105359	0.228732	27.444871	-11.920023	0.000000	0.043750	0.296619	-0.107222	0.081247	0.394503	-0.113923	0.071876	0.721199	-0.113923	0.050001	0.721199	-0.093819	0.040626	0.604865	-0.087118	0.024998	0.459462	-0.080416	0.312499	3.355409	-0.596335	0.000000	0.000000	27.239377	-1.970649	-0.593330	11.571522	-11.550609	144.119220	5.139720	4.174170	-3.752665	-10.073050	9.736317	-10.563820	113.344994	11.042584	5.634527	-7.297963	-15.207520
4.898305	0.316313	-5.332951	88.372020	0.191347	0.895340	0.627855	1.947058	-1.079511	-1.379273	8.959709	0.156376	29.623463	11.065282	0.000000	4.263987	0.678346	10.623166	13.015036	0.227155	27.581378	-11.646030	0.000000	0.054245	0.314064	-0.195536	0.100739	0.417706	-0.207757	0.089119	0.763616	-0.207757	0.061997	0.763616	-0.171094	0.050372	0.640440	-0.158873	0.030996	0.486486	-0.146652	0.387467	3.552760	-1.087512	0.000000	0.000000	27.289133	-1.789423	0.003651	11.823141	-11.512294	145.323576	5.080233	4.222093	-3.937763	-10.064511	9.463354	-10.528821	112.487605	10.948700	5.513824	-7.429716	-15.581129
4.915254	0.411664	-5.416399	88.355525	0.191151	0.895339	0.627518	2.018154	-0.978241	-1.245789	8.925995	0.155788	29.598159	10.947030	0.000000	4.308244	0.579662	10.600325	12.930289	0.225676	27.675202	-11.386009	0.000000	0.065762	0.330846	-0.279726	0.122127	0.440025	-0.297208	0.108041	0.804418	-0.297208	0.075160	0.804418	-0.244760	0.061067	0.674660	-0.227277	0.037577	0.512480	-0.209794	0.469733	3.742592	-1.555750	0.000000	0.000000	27.345733	-1.613329	0.554106	12.065055	-11.468637	146.673967	4.988183	4.267103	-4.114208	-10.009846	9.204124	-10.472270	111.902424	10.799365	5.348889	-7.557560	-15.918805
4.932203	0.501041	-5.501946	88.348894	0.190953	0.895323	0.627176	2.086489	-0.882043	-1.099211	8.897590	0.155292	29.511480	10.779703	0.000000	4.349988	0.489772	10.584839	12.846706	0.224217	27.702390	-11.165876	0.000000	0.077115	0.345800	-0.360555	0.143210	0.459913	-0.383090	0.126692	0.840777	-0.383090	0.088135	0.840777	-0.315486	0.071609	0.705155	-0.292951	0.044063	0.535644	-0.270417	0.550824	3.911754	-2.005301	0.000000	0.000000	27.404705	-1.443649	1.016686	12.302039	-11.421293	148.001138	4.917336	4.260843	-4.257326	-9.935538	8.952048	-10.428460	111.225302	10.678522	5.163165	-7.637827	-16.284662
